<svg width="16" height="16" viewBox="0 0 16 16" fill="none" xmlns="http://www.w3.org/2000/svg">
<path fill-rule="evenodd" clip-rule="evenodd" d="M12 6.66667C12 9.61218 9.61218 12 6.66667 12C3.72115 12 1.33333 9.61218 1.33333 6.66667C1.33333 3.72115 3.72115 1.33333 6.66667 1.33333C9.61218 1.33333 12 3.72115 12 6.66667ZM10.6206 12.0348C9.5144 12.8509 8.14687 13.3333 6.66667 13.3333C2.98477 13.3333 0 10.3486 0 6.66667C0 2.98477 2.98477 0 6.66667 0C10.3486 0 13.3333 2.98477 13.3333 6.66667C13.3333 8.14686 12.8509 9.51439 12.0348 10.6206C12.0367 10.6225 12.0386 10.6243 12.0404 10.6262L15.3738 13.9595C15.7643 14.3501 15.7643 14.9832 15.3738 15.3738C14.9833 15.7643 14.3501 15.7643 13.9596 15.3738L10.6262 12.0404C10.6243 12.0385 10.6225 12.0367 10.6206 12.0348Z" fill="#0B0B0C"/>
</svg>
